<?xml version="1.0" encoding="UTF-8"?>
<svg id="Livello_1" data-name="Livello 1" xmlns="http://www.w3.org/2000/svg" viewBox="0 0 128 128">
  <defs>
    <style>
      .cls-1 {
        fill: #9a6740;
      }

      .cls-1, .cls-2, .cls-3, .cls-4, .cls-5 {
        stroke-width: 0px;
      }

      .cls-2 {
        fill: #e4a870;
      }

      .cls-3 {
        fill: #0a1621;
      }

      .cls-4 {
        fill: #986640;
      }

      .cls-5 {
        fill: #e6aa71;
      }
    </style>
  </defs>
  <rect class="cls-3" x="92" y="94" width="4" height="4"/>
  <rect class="cls-3" x="92" y="90" width="4" height="4"/>
  <rect class="cls-3" x="92" y="86" width="4" height="4"/>
  <rect class="cls-3" x="92" y="82" width="4" height="4"/>
  <rect class="cls-3" x="92" y="78" width="4" height="4"/>
  <rect class="cls-3" x="92" y="74" width="4" height="4"/>
  <rect class="cls-3" x="92" y="70" width="4" height="4"/>
  <rect class="cls-3" x="92" y="66" width="4" height="4"/>
  <rect class="cls-3" x="88" y="98" width="4" height="4"/>
  <rect class="cls-3" x="88" y="94" width="4" height="4"/>
  <rect class="cls-1" x="88" y="90" width="4" height="4"/>
  <rect class="cls-5" x="88" y="86" width="4" height="4"/>
  <rect class="cls-5" x="88" y="82" width="4" height="4"/>
  <rect class="cls-5" x="88" y="78" width="4" height="4"/>
  <rect class="cls-5" x="88" y="74" width="4" height="4"/>
  <rect class="cls-5" x="88" y="70" width="4" height="4"/>
  <rect class="cls-5" x="88" y="66" width="4" height="4"/>
  <rect class="cls-3" x="88" y="62" width="4" height="4"/>
  <rect class="cls-3" x="88" y="58" width="4" height="4"/>
  <rect class="cls-3" x="84" y="98" width="4" height="4"/>
  <rect class="cls-1" x="84" y="94" width="4" height="4"/>
  <rect class="cls-1" x="84" y="90" width="4" height="4"/>
  <rect class="cls-5" x="84" y="86" width="4" height="4"/>
  <rect class="cls-5" x="84" y="82" width="4" height="4"/>
  <rect class="cls-5" x="84" y="78" width="4" height="4"/>
  <rect class="cls-5" x="84" y="74" width="4" height="4"/>
  <rect class="cls-5" x="84" y="70" width="4" height="4"/>
  <rect class="cls-5" x="84" y="66" width="4" height="4"/>
  <rect class="cls-5" x="84" y="62" width="4" height="4"/>
  <rect class="cls-5" x="84" y="58" width="4" height="4"/>
  <rect class="cls-3" x="84" y="54" width="4" height="4"/>
  <rect class="cls-3" x="80" y="98" width="4" height="4"/>
  <rect class="cls-1" x="80" y="94" width="4" height="4"/>
  <rect class="cls-5" x="80" y="90" width="4" height="4"/>
  <rect class="cls-5" x="80" y="86" width="4" height="4"/>
  <rect class="cls-5" x="80" y="82" width="4" height="4"/>
  <rect class="cls-5" x="80" y="78" width="4" height="4"/>
  <rect class="cls-5" x="80" y="74" width="4" height="4"/>
  <rect class="cls-5" x="80" y="70" width="4" height="4"/>
  <rect class="cls-5" x="80" y="66" width="4" height="4"/>
  <rect class="cls-5" x="80" y="62" width="4" height="4"/>
  <rect class="cls-5" x="80" y="58" width="4" height="4"/>
  <rect class="cls-5" x="80" y="54" width="4" height="4"/>
  <rect class="cls-3" x="80" y="50" width="4" height="4"/>
  <rect class="cls-3" x="80" y="34" width="4" height="4"/>
  <rect class="cls-3" x="80" y="30" width="4" height="4"/>
  <rect class="cls-3" x="76" y="98" width="4" height="4"/>
  <rect class="cls-1" x="76" y="94" width="4" height="4"/>
  <rect class="cls-5" x="76" y="90" width="4" height="4"/>
  <rect class="cls-5" x="76" y="86" width="4" height="4"/>
  <rect class="cls-5" x="76" y="82" width="4" height="4"/>
  <rect class="cls-5" x="76" y="78" width="4" height="4"/>
  <rect class="cls-5" x="76" y="74" width="4" height="4"/>
  <rect class="cls-5" x="76" y="70" width="4" height="4"/>
  <rect class="cls-5" x="76" y="66" width="4" height="4"/>
  <rect class="cls-5" x="76" y="62" width="4" height="4"/>
  <rect class="cls-5" x="76" y="58" width="4" height="4"/>
  <rect class="cls-5" x="76" y="54" width="4" height="4"/>
  <rect class="cls-5" x="76" y="50" width="4" height="4"/>
  <rect class="cls-3" x="76" y="46" width="4" height="4"/>
  <rect class="cls-3" x="76" y="38" width="4" height="4"/>
  <rect class="cls-4" x="76" y="34" width="4" height="4"/>
  <rect class="cls-2" x="76" y="30" width="4" height="4"/>
  <rect class="cls-3" x="76" y="26" width="4" height="4"/>
  <rect class="cls-3" x="72" y="98" width="4" height="4"/>
  <rect class="cls-1" x="72" y="94" width="4" height="4"/>
  <rect class="cls-5" x="72" y="90" width="4" height="4"/>
  <rect class="cls-5" x="72" y="86" width="4" height="4"/>
  <rect class="cls-3" x="72" y="82" width="4" height="4"/>
  <rect class="cls-3" x="72" y="78" width="4" height="4"/>
  <rect class="cls-3" x="72" y="74" width="4" height="4"/>
  <rect class="cls-3" x="72" y="70" width="4" height="4"/>
  <rect class="cls-5" x="72" y="66" width="4" height="4"/>
  <rect class="cls-3" x="72" y="62" width="4" height="4"/>
  <rect class="cls-3" x="72" y="58" width="4" height="4"/>
  <rect class="cls-5" x="72" y="54" width="4" height="4"/>
  <rect class="cls-5" x="72" y="50" width="4" height="4"/>
  <rect class="cls-3" x="72" y="46" width="4" height="4"/>
  <rect class="cls-3" x="72" y="42" width="4" height="4"/>
  <rect class="cls-4" x="72" y="38" width="4" height="4"/>
  <rect class="cls-4" x="72" y="34" width="4" height="4"/>
  <rect class="cls-2" x="72" y="30" width="4" height="4"/>
  <rect class="cls-3" x="72" y="26" width="4" height="4"/>
  <rect class="cls-3" x="68" y="98" width="4" height="4"/>
  <rect class="cls-1" x="68" y="94" width="4" height="4"/>
  <rect class="cls-5" x="68" y="90" width="4" height="4"/>
  <rect class="cls-5" x="68" y="86" width="4" height="4"/>
  <rect class="cls-3" x="68" y="82" width="4" height="4"/>
  <rect class="cls-5" x="68" y="78" width="4" height="4"/>
  <rect class="cls-5" x="68" y="74" width="4" height="4"/>
  <rect class="cls-3" x="68" y="70" width="4" height="4"/>
  <rect class="cls-5" x="68" y="66" width="4" height="4"/>
  <rect class="cls-5" x="68" y="62" width="4" height="4"/>
  <rect class="cls-3" x="68" y="58" width="4" height="4"/>
  <rect class="cls-5" x="68" y="54" width="4" height="4"/>
  <rect class="cls-5" x="68" y="50" width="4" height="4"/>
  <rect class="cls-3" x="68" y="46" width="4" height="4"/>
  <rect class="cls-3" x="68" y="42" width="4" height="4"/>
  <rect class="cls-2" x="68" y="38" width="4" height="4"/>
  <rect class="cls-2" x="68" y="34" width="4" height="4"/>
  <rect class="cls-2" x="68" y="30" width="4" height="4"/>
  <rect class="cls-3" x="68" y="26" width="4" height="4"/>
  <rect class="cls-3" x="64" y="98" width="4" height="4"/>
  <rect class="cls-1" x="64" y="94" width="4" height="4"/>
  <rect class="cls-5" x="64" y="90" width="4" height="4"/>
  <rect class="cls-3" x="64" y="86" width="4" height="4"/>
  <rect class="cls-3" x="64" y="82" width="4" height="4"/>
  <rect class="cls-3" x="64" y="78" width="4" height="4"/>
  <rect class="cls-3" x="64" y="74" width="4" height="4"/>
  <rect class="cls-3" x="64" y="70" width="4" height="4"/>
  <rect class="cls-3" x="64" y="66" width="4" height="4"/>
  <rect class="cls-3" x="64" y="62" width="4" height="4"/>
  <rect class="cls-3" x="64" y="58" width="4" height="4"/>
  <rect class="cls-3" x="64" y="54" width="4" height="4"/>
  <rect class="cls-5" x="64" y="50" width="4" height="4"/>
  <rect class="cls-3" x="64" y="46" width="4" height="4"/>
  <rect class="cls-3" x="64" y="42" width="4" height="4"/>
  <rect class="cls-5" x="64" y="38" width="4" height="4"/>
  <rect class="cls-2" x="64" y="34" width="4" height="4"/>
  <rect class="cls-3" x="64" y="30" width="4" height="4"/>
  <rect class="cls-3" x="60" y="98" width="4" height="4"/>
  <rect class="cls-1" x="60" y="94" width="4" height="4"/>
  <rect class="cls-5" x="60" y="90" width="4" height="4"/>
  <rect class="cls-5" x="60" y="86" width="4" height="4"/>
  <rect class="cls-3" x="60" y="82" width="4" height="4"/>
  <rect class="cls-5" x="60" y="78" width="4" height="4"/>
  <rect class="cls-5" x="60" y="74" width="4" height="4"/>
  <rect class="cls-3" x="60" y="70" width="4" height="4"/>
  <rect class="cls-5" x="60" y="66" width="4" height="4"/>
  <rect class="cls-5" x="60" y="62" width="4" height="4"/>
  <rect class="cls-3" x="60" y="58" width="4" height="4"/>
  <rect class="cls-5" x="60" y="54" width="4" height="4"/>
  <rect class="cls-5" x="60" y="50" width="4" height="4"/>
  <rect class="cls-3" x="60" y="46" width="4" height="4"/>
  <rect class="cls-3" x="60" y="42" width="4" height="4"/>
  <rect class="cls-4" x="60" y="38" width="4" height="4"/>
  <rect class="cls-2" x="60" y="34" width="4" height="4"/>
  <rect class="cls-2" x="60" y="30" width="4" height="4"/>
  <rect class="cls-3" x="60" y="26" width="4" height="4"/>
  <rect class="cls-3" x="56" y="98" width="4" height="4"/>
  <rect class="cls-1" x="56" y="94" width="4" height="4"/>
  <rect class="cls-5" x="56" y="90" width="4" height="4"/>
  <rect class="cls-5" x="56" y="86" width="4" height="4"/>
  <rect class="cls-3" x="56" y="82" width="4" height="4"/>
  <rect class="cls-3" x="56" y="78" width="4" height="4"/>
  <rect class="cls-5" x="56" y="74" width="4" height="4"/>
  <rect class="cls-3" x="56" y="70" width="4" height="4"/>
  <rect class="cls-3" x="56" y="66" width="4" height="4"/>
  <rect class="cls-3" x="56" y="62" width="4" height="4"/>
  <rect class="cls-3" x="56" y="58" width="4" height="4"/>
  <rect class="cls-5" x="56" y="54" width="4" height="4"/>
  <rect class="cls-5" x="56" y="50" width="4" height="4"/>
  <rect class="cls-3" x="56" y="46" width="4" height="4"/>
  <rect class="cls-3" x="56" y="42" width="4" height="4"/>
  <rect class="cls-4" x="56" y="38" width="4" height="4"/>
  <rect class="cls-4" x="56" y="34" width="4" height="4"/>
  <rect class="cls-2" x="56" y="30" width="4" height="4"/>
  <rect class="cls-3" x="56" y="26" width="4" height="4"/>
  <rect class="cls-3" x="52" y="98" width="4" height="4"/>
  <rect class="cls-1" x="52" y="94" width="4" height="4"/>
  <rect class="cls-5" x="52" y="90" width="4" height="4"/>
  <rect class="cls-5" x="52" y="86" width="4" height="4"/>
  <rect class="cls-5" x="52" y="82" width="4" height="4"/>
  <rect class="cls-5" x="52" y="78" width="4" height="4"/>
  <rect class="cls-5" x="52" y="74" width="4" height="4"/>
  <rect class="cls-5" x="52" y="70" width="4" height="4"/>
  <rect class="cls-5" x="52" y="66" width="4" height="4"/>
  <rect class="cls-5" x="52" y="62" width="4" height="4"/>
  <rect class="cls-5" x="52" y="58" width="4" height="4"/>
  <rect class="cls-5" x="52" y="54" width="4" height="4"/>
  <rect class="cls-5" x="52" y="50" width="4" height="4"/>
  <rect class="cls-3" x="52" y="46" width="4" height="4"/>
  <rect class="cls-3" x="52" y="38" width="4" height="4"/>
  <rect class="cls-3" x="52" y="34" width="4" height="4"/>
  <rect class="cls-2" x="52" y="30" width="4" height="4"/>
  <rect class="cls-3" x="52" y="26" width="4" height="4"/>
  <rect class="cls-3" x="48" y="98" width="4" height="4"/>
  <rect class="cls-1" x="48" y="94" width="4" height="4"/>
  <rect class="cls-5" x="48" y="90" width="4" height="4"/>
  <rect class="cls-5" x="48" y="86" width="4" height="4"/>
  <rect class="cls-5" x="48" y="82" width="4" height="4"/>
  <rect class="cls-5" x="48" y="78" width="4" height="4"/>
  <rect class="cls-5" x="48" y="74" width="4" height="4"/>
  <rect class="cls-5" x="48" y="70" width="4" height="4"/>
  <rect class="cls-5" x="48" y="66" width="4" height="4"/>
  <rect class="cls-5" x="48" y="62" width="4" height="4"/>
  <rect class="cls-5" x="48" y="58" width="4" height="4"/>
  <rect class="cls-5" x="48" y="54" width="4" height="4"/>
  <rect class="cls-3" x="48" y="50" width="4" height="4"/>
  <rect class="cls-3" x="48" y="30" width="4" height="4"/>
  <rect class="cls-3" x="48" y="26" width="4" height="4"/>
  <rect class="cls-3" x="44" y="98" width="4" height="4"/>
  <rect class="cls-1" x="44" y="94" width="4" height="4"/>
  <rect class="cls-1" x="44" y="90" width="4" height="4"/>
  <rect class="cls-5" x="44" y="86" width="4" height="4"/>
  <rect class="cls-5" x="44" y="82" width="4" height="4"/>
  <rect class="cls-5" x="44" y="78" width="4" height="4"/>
  <rect class="cls-5" x="44" y="74" width="4" height="4"/>
  <rect class="cls-5" x="44" y="70" width="4" height="4"/>
  <rect class="cls-5" x="44" y="66" width="4" height="4"/>
  <rect class="cls-5" x="44" y="62" width="4" height="4"/>
  <rect class="cls-5" x="44" y="58" width="4" height="4"/>
  <rect class="cls-3" x="44" y="54" width="4" height="4"/>
  <rect class="cls-3" x="40" y="98" width="4" height="4"/>
  <rect class="cls-3" x="40" y="94" width="4" height="4"/>
  <rect class="cls-1" x="40" y="90" width="4" height="4"/>
  <rect class="cls-1" x="40" y="86" width="4" height="4"/>
  <rect class="cls-5" x="40" y="82" width="4" height="4"/>
  <rect class="cls-5" x="40" y="78" width="4" height="4"/>
  <rect class="cls-5" x="40" y="74" width="4" height="4"/>
  <rect class="cls-5" x="40" y="70" width="4" height="4"/>
  <rect class="cls-5" x="40" y="66" width="4" height="4"/>
  <rect class="cls-5" x="40" y="62" width="4" height="4"/>
  <rect class="cls-3" x="40" y="58" width="4" height="4"/>
  <rect class="cls-3" x="36" y="94" width="4" height="4"/>
  <rect class="cls-3" x="36" y="90" width="4" height="4"/>
  <rect class="cls-1" x="36" y="86" width="4" height="4"/>
  <rect class="cls-1" x="36" y="82" width="4" height="4"/>
  <rect class="cls-1" x="36" y="78" width="4" height="4"/>
  <rect class="cls-1" x="36" y="74" width="4" height="4"/>
  <rect class="cls-1" x="36" y="70" width="4" height="4"/>
  <rect class="cls-3" x="36" y="66" width="4" height="4"/>
  <rect class="cls-3" x="36" y="62" width="4" height="4"/>
  <rect class="cls-3" x="32" y="90" width="4" height="4"/>
  <rect class="cls-3" x="32" y="86" width="4" height="4"/>
  <rect class="cls-3" x="32" y="82" width="4" height="4"/>
  <rect class="cls-3" x="32" y="78" width="4" height="4"/>
  <rect class="cls-3" x="32" y="74" width="4" height="4"/>
  <rect class="cls-3" x="32" y="70" width="4" height="4"/>
</svg>