<?xml version="1.0" encoding="UTF-8"?>
<svg id="Livello_1" data-name="Livello 1" xmlns="http://www.w3.org/2000/svg" viewBox="0 0 128.2 128.2">
  <defs>
    <style>
      .cls-1 {
        fill: #3b9e9b;
      }

      .cls-1, .cls-2, .cls-3, .cls-4 {
        stroke-width: 0px;
      }

      .cls-2 {
        fill: #0a1521;
      }

      .cls-3 {
        fill: #10686f;
      }

      .cls-4 {
        fill: #fbc468;
      }
    </style>
  </defs>
  <rect class="cls-2" x="98.1" y="84.1" width="4" height="4"/>
  <rect class="cls-2" x="98.1" y="80.1" width="4" height="4"/>
  <rect class="cls-2" x="98.1" y="76.1" width="4" height="4"/>
  <rect class="cls-2" x="98.1" y="72.1" width="4" height="4"/>
  <rect class="cls-2" x="98.1" y="68.1" width="4" height="4"/>
  <rect class="cls-2" x="98.1" y="64.1" width="4" height="4"/>
  <rect class="cls-2" x="98.1" y="60.1" width="4" height="4"/>
  <rect class="cls-2" x="98.1" y="56.1" width="4" height="4"/>
  <rect class="cls-2" x="98.1" y="52.1" width="4" height="4"/>
  <rect class="cls-2" x="98.1" y="48.1" width="4" height="4"/>
  <rect class="cls-2" x="98.1" y="44.1" width="4" height="4"/>
  <rect class="cls-2" x="94.1" y="88.1" width="4" height="4"/>
  <rect class="cls-3" x="94.1" y="84.1" width="4" height="4"/>
  <rect class="cls-1" x="94.1" y="80.1" width="4" height="4"/>
  <rect class="cls-1" x="94.1" y="76.1" width="4" height="4"/>
  <rect class="cls-1" x="94.1" y="72.1" width="4" height="4"/>
  <rect class="cls-1" x="94.1" y="68.1" width="4" height="4"/>
  <rect class="cls-1" x="94.1" y="64.1" width="4" height="4"/>
  <rect class="cls-1" x="94.1" y="60.1" width="4" height="4"/>
  <rect class="cls-1" x="94.1" y="56.1" width="4" height="4"/>
  <rect class="cls-2" x="94.1" y="52.1" width="4" height="4"/>
  <rect class="cls-2" x="94.1" y="48.1" width="4" height="4"/>
  <rect class="cls-2" x="94.1" y="44.1" width="4" height="4"/>
  <rect class="cls-2" x="94.1" y="40.1" width="4" height="4"/>
  <rect class="cls-2" x="90.1" y="88.1" width="4" height="4"/>
  <rect class="cls-3" x="90.1" y="84.1" width="4" height="4"/>
  <rect class="cls-1" x="90.1" y="80.1" width="4" height="4"/>
  <rect class="cls-2" x="90.1" y="76.1" width="4" height="4"/>
  <rect class="cls-2" x="90.1" y="72.1" width="4" height="4"/>
  <rect class="cls-2" x="90.1" y="68.1" width="4" height="4"/>
  <rect class="cls-2" x="90.1" y="64.1" width="4" height="4"/>
  <rect class="cls-1" x="90.1" y="60.1" width="4" height="4"/>
  <rect class="cls-1" x="90.1" y="56.1" width="4" height="4"/>
  <rect class="cls-2" x="90.1" y="52.1" width="4" height="4"/>
  <rect class="cls-2" x="90.1" y="48.1" width="4" height="4"/>
  <rect class="cls-3" x="90.1" y="44.1" width="4" height="4"/>
  <rect class="cls-1" x="90.1" y="40.1" width="4" height="4"/>
  <rect class="cls-2" x="90.1" y="36.1" width="4" height="4"/>
  <rect class="cls-2" x="86.1" y="88.1" width="4" height="4"/>
  <rect class="cls-3" x="86.1" y="84.1" width="4" height="4"/>
  <rect class="cls-1" x="86.1" y="80.1" width="4" height="4"/>
  <rect class="cls-2" x="86.1" y="76.1" width="4" height="4"/>
  <rect class="cls-4" x="86.1" y="72.1" width="4" height="4"/>
  <rect class="cls-4" x="86.1" y="68.1" width="4" height="4"/>
  <rect class="cls-2" x="86.1" y="64.1" width="4" height="4"/>
  <rect class="cls-1" x="86.1" y="60.1" width="4" height="4"/>
  <rect class="cls-1" x="86.1" y="56.1" width="4" height="4"/>
  <rect class="cls-2" x="86.1" y="52.1" width="4" height="4"/>
  <rect class="cls-2" x="86.1" y="48.1" width="4" height="4"/>
  <rect class="cls-3" x="86.1" y="44.1" width="4" height="4"/>
  <rect class="cls-1" x="86.1" y="40.1" width="4" height="4"/>
  <rect class="cls-2" x="86.1" y="36.1" width="4" height="4"/>
  <rect class="cls-2" x="82.1" y="88.1" width="4" height="4"/>
  <rect class="cls-3" x="82.1" y="84.1" width="4" height="4"/>
  <rect class="cls-1" x="82.1" y="80.1" width="4" height="4"/>
  <rect class="cls-2" x="82.1" y="76.1" width="4" height="4"/>
  <rect class="cls-4" x="82.1" y="72.1" width="4" height="4"/>
  <rect class="cls-4" x="82.1" y="68.1" width="4" height="4"/>
  <rect class="cls-2" x="82.1" y="64.1" width="4" height="4"/>
  <rect class="cls-1" x="82.1" y="60.1" width="4" height="4"/>
  <rect class="cls-1" x="82.1" y="56.1" width="4" height="4"/>
  <rect class="cls-2" x="82.1" y="52.1" width="4" height="4"/>
  <rect class="cls-2" x="82.1" y="48.1" width="4" height="4"/>
  <rect class="cls-3" x="82.1" y="44.1" width="4" height="4"/>
  <rect class="cls-1" x="82.1" y="40.1" width="4" height="4"/>
  <rect class="cls-2" x="82.1" y="36.1" width="4" height="4"/>
  <rect class="cls-2" x="78.1" y="88.1" width="4" height="4"/>
  <rect class="cls-3" x="78.1" y="84.1" width="4" height="4"/>
  <rect class="cls-1" x="78.1" y="80.1" width="4" height="4"/>
  <rect class="cls-2" x="78.1" y="76.1" width="4" height="4"/>
  <rect class="cls-2" x="78.1" y="72.1" width="4" height="4"/>
  <rect class="cls-2" x="78.1" y="68.1" width="4" height="4"/>
  <rect class="cls-2" x="78.1" y="64.1" width="4" height="4"/>
  <rect class="cls-1" x="78.1" y="60.1" width="4" height="4"/>
  <rect class="cls-1" x="78.1" y="56.1" width="4" height="4"/>
  <rect class="cls-2" x="78.1" y="52.1" width="4" height="4"/>
  <rect class="cls-2" x="78.1" y="48.1" width="4" height="4"/>
  <rect class="cls-3" x="78.1" y="44.1" width="4" height="4"/>
  <rect class="cls-1" x="78.1" y="40.1" width="4" height="4"/>
  <rect class="cls-2" x="78.1" y="36.1" width="4" height="4"/>
  <rect class="cls-2" x="74.1" y="88.1" width="4" height="4"/>
  <rect class="cls-3" x="74.1" y="84.1" width="4" height="4"/>
  <rect class="cls-1" x="74.1" y="80.1" width="4" height="4"/>
  <rect class="cls-1" x="74.1" y="76.1" width="4" height="4"/>
  <rect class="cls-1" x="74.1" y="72.1" width="4" height="4"/>
  <rect class="cls-1" x="74.1" y="68.1" width="4" height="4"/>
  <rect class="cls-1" x="74.1" y="64.1" width="4" height="4"/>
  <rect class="cls-1" x="74.1" y="60.1" width="4" height="4"/>
  <rect class="cls-1" x="74.1" y="56.1" width="4" height="4"/>
  <rect class="cls-2" x="74.1" y="52.1" width="4" height="4"/>
  <rect class="cls-2" x="74.1" y="48.1" width="4" height="4"/>
  <rect class="cls-3" x="74.1" y="44.1" width="4" height="4"/>
  <rect class="cls-1" x="74.1" y="40.1" width="4" height="4"/>
  <rect class="cls-2" x="74.1" y="36.1" width="4" height="4"/>
  <rect class="cls-2" x="70.1" y="88.1" width="4" height="4"/>
  <rect class="cls-3" x="70.1" y="84.1" width="4" height="4"/>
  <rect class="cls-1" x="70.1" y="80.1" width="4" height="4"/>
  <rect class="cls-1" x="70.1" y="76.1" width="4" height="4"/>
  <rect class="cls-1" x="70.1" y="72.1" width="4" height="4"/>
  <rect class="cls-1" x="70.1" y="68.1" width="4" height="4"/>
  <rect class="cls-1" x="70.1" y="64.1" width="4" height="4"/>
  <rect class="cls-1" x="70.1" y="60.1" width="4" height="4"/>
  <rect class="cls-1" x="70.1" y="56.1" width="4" height="4"/>
  <rect class="cls-2" x="70.1" y="52.1" width="4" height="4"/>
  <rect class="cls-2" x="70.1" y="48.1" width="4" height="4"/>
  <rect class="cls-3" x="70.1" y="44.1" width="4" height="4"/>
  <rect class="cls-1" x="70.1" y="40.1" width="4" height="4"/>
  <rect class="cls-2" x="70.1" y="36.1" width="4" height="4"/>
  <rect class="cls-2" x="66.1" y="88.1" width="4" height="4"/>
  <rect class="cls-3" x="66.1" y="84.1" width="4" height="4"/>
  <rect class="cls-1" x="66.1" y="80.1" width="4" height="4"/>
  <rect class="cls-1" x="66.1" y="76.1" width="4" height="4"/>
  <rect class="cls-1" x="66.1" y="72.1" width="4" height="4"/>
  <rect class="cls-1" x="66.1" y="68.1" width="4" height="4"/>
  <rect class="cls-1" x="66.1" y="64.1" width="4" height="4"/>
  <rect class="cls-1" x="66.1" y="60.1" width="4" height="4"/>
  <rect class="cls-1" x="66.1" y="56.1" width="4" height="4"/>
  <rect class="cls-2" x="66.1" y="52.1" width="4" height="4"/>
  <rect class="cls-2" x="66.1" y="48.1" width="4" height="4"/>
  <rect class="cls-3" x="66.1" y="44.1" width="4" height="4"/>
  <rect class="cls-1" x="66.1" y="40.1" width="4" height="4"/>
  <rect class="cls-2" x="66.1" y="36.1" width="4" height="4"/>
  <rect class="cls-2" x="62.1" y="88.1" width="4" height="4"/>
  <rect class="cls-3" x="62.1" y="84.1" width="4" height="4"/>
  <rect class="cls-1" x="62.1" y="80.1" width="4" height="4"/>
  <rect class="cls-2" x="62.1" y="76.1" width="4" height="4"/>
  <rect class="cls-1" x="62.1" y="72.1" width="4" height="4"/>
  <rect class="cls-1" x="62.1" y="68.1" width="4" height="4"/>
  <rect class="cls-2" x="62.1" y="64.1" width="4" height="4"/>
  <rect class="cls-1" x="62.1" y="60.1" width="4" height="4"/>
  <rect class="cls-1" x="62.1" y="56.1" width="4" height="4"/>
  <rect class="cls-2" x="62.1" y="52.1" width="4" height="4"/>
  <rect class="cls-2" x="62.1" y="48.1" width="4" height="4"/>
  <rect class="cls-3" x="62.1" y="44.1" width="4" height="4"/>
  <rect class="cls-1" x="62.1" y="40.1" width="4" height="4"/>
  <rect class="cls-2" x="62.1" y="36.1" width="4" height="4"/>
  <rect class="cls-2" x="58.1" y="88.1" width="4" height="4"/>
  <rect class="cls-3" x="58.1" y="84.1" width="4" height="4"/>
  <rect class="cls-1" x="58.1" y="80.1" width="4" height="4"/>
  <rect class="cls-2" x="58.1" y="76.1" width="4" height="4"/>
  <rect class="cls-1" x="58.1" y="72.1" width="4" height="4"/>
  <rect class="cls-1" x="58.1" y="68.1" width="4" height="4"/>
  <rect class="cls-2" x="58.1" y="64.1" width="4" height="4"/>
  <rect class="cls-1" x="58.1" y="60.1" width="4" height="4"/>
  <rect class="cls-1" x="58.1" y="56.1" width="4" height="4"/>
  <rect class="cls-2" x="58.1" y="52.1" width="4" height="4"/>
  <rect class="cls-2" x="58.1" y="48.1" width="4" height="4"/>
  <rect class="cls-3" x="58.1" y="44.1" width="4" height="4"/>
  <rect class="cls-1" x="58.1" y="40.1" width="4" height="4"/>
  <rect class="cls-2" x="58.1" y="36.1" width="4" height="4"/>
  <rect class="cls-2" x="54.1" y="88.1" width="4" height="4"/>
  <rect class="cls-3" x="54.1" y="84.1" width="4" height="4"/>
  <rect class="cls-1" x="54.1" y="80.1" width="4" height="4"/>
  <rect class="cls-1" x="54.1" y="76.1" width="4" height="4"/>
  <rect class="cls-1" x="54.1" y="72.1" width="4" height="4"/>
  <rect class="cls-1" x="54.1" y="68.1" width="4" height="4"/>
  <rect class="cls-2" x="54.1" y="64.1" width="4" height="4"/>
  <rect class="cls-1" x="54.1" y="60.1" width="4" height="4"/>
  <rect class="cls-1" x="54.1" y="56.1" width="4" height="4"/>
  <rect class="cls-2" x="54.1" y="52.1" width="4" height="4"/>
  <rect class="cls-2" x="54.1" y="48.1" width="4" height="4"/>
  <rect class="cls-3" x="54.1" y="44.1" width="4" height="4"/>
  <rect class="cls-1" x="54.1" y="40.1" width="4" height="4"/>
  <rect class="cls-2" x="54.1" y="36.1" width="4" height="4"/>
  <rect class="cls-2" x="50.1" y="88.1" width="4" height="4"/>
  <rect class="cls-3" x="50.1" y="84.1" width="4" height="4"/>
  <rect class="cls-1" x="50.1" y="80.1" width="4" height="4"/>
  <rect class="cls-2" x="50.1" y="76.1" width="4" height="4"/>
  <rect class="cls-1" x="50.1" y="72.1" width="4" height="4"/>
  <rect class="cls-1" x="50.1" y="68.1" width="4" height="4"/>
  <rect class="cls-2" x="50.1" y="64.1" width="4" height="4"/>
  <rect class="cls-1" x="50.1" y="60.1" width="4" height="4"/>
  <rect class="cls-1" x="50.1" y="56.1" width="4" height="4"/>
  <rect class="cls-2" x="50.1" y="52.1" width="4" height="4"/>
  <rect class="cls-2" x="50.1" y="48.1" width="4" height="4"/>
  <rect class="cls-3" x="50.1" y="44.1" width="4" height="4"/>
  <rect class="cls-1" x="50.1" y="40.1" width="4" height="4"/>
  <rect class="cls-2" x="50.1" y="36.1" width="4" height="4"/>
  <rect class="cls-2" x="46.1" y="88.1" width="4" height="4"/>
  <rect class="cls-3" x="46.1" y="84.1" width="4" height="4"/>
  <rect class="cls-1" x="46.1" y="80.1" width="4" height="4"/>
  <rect class="cls-2" x="46.1" y="76.1" width="4" height="4"/>
  <rect class="cls-1" x="46.1" y="72.1" width="4" height="4"/>
  <rect class="cls-1" x="46.1" y="68.1" width="4" height="4"/>
  <rect class="cls-2" x="46.1" y="64.1" width="4" height="4"/>
  <rect class="cls-1" x="46.1" y="60.1" width="4" height="4"/>
  <rect class="cls-1" x="46.1" y="56.1" width="4" height="4"/>
  <rect class="cls-2" x="46.1" y="52.1" width="4" height="4"/>
  <rect class="cls-2" x="46.1" y="48.1" width="4" height="4"/>
  <rect class="cls-3" x="46.1" y="44.1" width="4" height="4"/>
  <rect class="cls-1" x="46.1" y="40.1" width="4" height="4"/>
  <rect class="cls-2" x="46.1" y="36.1" width="4" height="4"/>
  <rect class="cls-2" x="42.1" y="88.1" width="4" height="4"/>
  <rect class="cls-3" x="42.1" y="84.1" width="4" height="4"/>
  <rect class="cls-1" x="42.1" y="80.1" width="4" height="4"/>
  <rect class="cls-1" x="42.1" y="76.1" width="4" height="4"/>
  <rect class="cls-1" x="42.1" y="72.1" width="4" height="4"/>
  <rect class="cls-1" x="42.1" y="68.1" width="4" height="4"/>
  <rect class="cls-2" x="42.1" y="64.1" width="4" height="4"/>
  <rect class="cls-1" x="42.1" y="60.1" width="4" height="4"/>
  <rect class="cls-1" x="42.1" y="56.1" width="4" height="4"/>
  <rect class="cls-2" x="42.1" y="52.1" width="4" height="4"/>
  <rect class="cls-2" x="42.1" y="48.1" width="4" height="4"/>
  <rect class="cls-3" x="42.1" y="44.1" width="4" height="4"/>
  <rect class="cls-1" x="42.1" y="40.1" width="4" height="4"/>
  <rect class="cls-2" x="42.1" y="36.1" width="4" height="4"/>
  <rect class="cls-2" x="38.1" y="88.1" width="4" height="4"/>
  <rect class="cls-3" x="38.1" y="84.1" width="4" height="4"/>
  <rect class="cls-1" x="38.1" y="80.1" width="4" height="4"/>
  <rect class="cls-2" x="38.1" y="76.1" width="4" height="4"/>
  <rect class="cls-1" x="38.1" y="72.1" width="4" height="4"/>
  <rect class="cls-1" x="38.1" y="68.1" width="4" height="4"/>
  <rect class="cls-2" x="38.1" y="64.1" width="4" height="4"/>
  <rect class="cls-1" x="38.1" y="60.1" width="4" height="4"/>
  <rect class="cls-1" x="38.1" y="56.1" width="4" height="4"/>
  <rect class="cls-2" x="38.1" y="52.1" width="4" height="4"/>
  <rect class="cls-2" x="38.1" y="48.1" width="4" height="4"/>
  <rect class="cls-3" x="38.1" y="44.1" width="4" height="4"/>
  <rect class="cls-1" x="38.1" y="40.1" width="4" height="4"/>
  <rect class="cls-2" x="38.1" y="36.1" width="4" height="4"/>
  <rect class="cls-2" x="34.1" y="88.1" width="4" height="4"/>
  <rect class="cls-3" x="34.1" y="84.1" width="4" height="4"/>
  <rect class="cls-1" x="34.1" y="80.1" width="4" height="4"/>
  <rect class="cls-2" x="34.1" y="76.1" width="4" height="4"/>
  <rect class="cls-1" x="34.1" y="72.1" width="4" height="4"/>
  <rect class="cls-1" x="34.1" y="68.1" width="4" height="4"/>
  <rect class="cls-2" x="34.1" y="64.1" width="4" height="4"/>
  <rect class="cls-1" x="34.1" y="60.1" width="4" height="4"/>
  <rect class="cls-1" x="34.1" y="56.1" width="4" height="4"/>
  <rect class="cls-2" x="34.1" y="52.1" width="4" height="4"/>
  <rect class="cls-2" x="34.1" y="48.1" width="4" height="4"/>
  <rect class="cls-3" x="34.1" y="44.1" width="4" height="4"/>
  <rect class="cls-1" x="34.1" y="40.1" width="4" height="4"/>
  <rect class="cls-2" x="34.1" y="36.1" width="4" height="4"/>
  <rect class="cls-2" x="30.1" y="88.1" width="4" height="4"/>
  <rect class="cls-3" x="30.1" y="84.1" width="4" height="4"/>
  <rect class="cls-1" x="30.1" y="80.1" width="4" height="4"/>
  <rect class="cls-1" x="30.1" y="76.1" width="4" height="4"/>
  <rect class="cls-1" x="30.1" y="72.1" width="4" height="4"/>
  <rect class="cls-1" x="30.1" y="68.1" width="4" height="4"/>
  <rect class="cls-1" x="30.1" y="64.1" width="4" height="4"/>
  <rect class="cls-1" x="30.1" y="60.1" width="4" height="4"/>
  <rect class="cls-1" x="30.1" y="56.1" width="4" height="4"/>
  <rect class="cls-2" x="30.1" y="52.1" width="4" height="4"/>
  <rect class="cls-2" x="30.1" y="48.1" width="4" height="4"/>
  <rect class="cls-3" x="30.1" y="44.1" width="4" height="4"/>
  <rect class="cls-1" x="30.1" y="40.1" width="4" height="4"/>
  <rect class="cls-2" x="30.1" y="36.1" width="4" height="4"/>
  <rect class="cls-2" x="26.1" y="84.1" width="4" height="4"/>
  <rect class="cls-2" x="26.1" y="80.1" width="4" height="4"/>
  <rect class="cls-2" x="26.1" y="76.1" width="4" height="4"/>
  <rect class="cls-2" x="26.1" y="72.1" width="4" height="4"/>
  <rect class="cls-2" x="26.1" y="68.1" width="4" height="4"/>
  <rect class="cls-2" x="26.1" y="64.1" width="4" height="4"/>
  <rect class="cls-2" x="26.1" y="60.1" width="4" height="4"/>
  <rect class="cls-2" x="26.1" y="56.1" width="4" height="4"/>
  <rect class="cls-2" x="26.1" y="52.1" width="4" height="4"/>
  <rect class="cls-2" x="26.1" y="48.1" width="4" height="4"/>
  <rect class="cls-2" x="26.1" y="44.1" width="4" height="4"/>
  <rect class="cls-2" x="26.1" y="40.1" width="4" height="4"/>
</svg>