<?xml version="1.0" encoding="UTF-8"?>
<svg id="Livello_1" data-name="Livello 1" xmlns="http://www.w3.org/2000/svg" viewBox="0 0 116 88">
  <defs>
    <style>
      .cls-1 {
        fill: #52724d;
      }

      .cls-1, .cls-2, .cls-3, .cls-4, .cls-5, .cls-6, .cls-7, .cls-8, .cls-9, .cls-10, .cls-11, .cls-12, .cls-13, .cls-14, .cls-15, .cls-16 {
        stroke-width: 0px;
      }

      .cls-2 {
        fill: #c1ccb2;
      }

      .cls-3 {
        fill: #1c2b1c;
      }

      .cls-4 {
        fill: #253a20;
      }

      .cls-5 {
        fill: #d28a2e;
      }

      .cls-6 {
        fill: #b37031;
      }

      .cls-7 {
        fill: #f4d884;
      }

      .cls-8 {
        fill: #f4f3be;
      }

      .cls-9 {
        fill: #b2c0b6;
      }

      .cls-10 {
        fill: #fbfcf8;
      }

      .cls-11 {
        fill: #869c84;
      }

      .cls-12 {
        fill: #6b896f;
      }

      .cls-13 {
        fill: #829478;
      }

      .cls-14 {
        fill: #92aa90;
      }

      .cls-15 {
        fill: #71896e;
      }

      .cls-16 {
        fill: #475843;
      }
    </style>
  </defs>
  <rect class="cls-16" x="112" y="44" width="4" height="4"/>
  <rect class="cls-16" x="112" y="40" width="4" height="4"/>
  <rect class="cls-16" x="112" y="36" width="4" height="4"/>
  <rect class="cls-16" x="112" y="32" width="4" height="4"/>
  <rect class="cls-16" x="112" y="28" width="4" height="4"/>
  <rect class="cls-16" x="112" y="24" width="4" height="4"/>
  <rect class="cls-16" x="112" y="20" width="4" height="4"/>
  <rect class="cls-16" x="108" y="48" width="4" height="4"/>
  <rect class="cls-16" x="108" y="44" width="4" height="4"/>
  <rect class="cls-16" x="108" y="40" width="4" height="4"/>
  <rect class="cls-16" x="108" y="36" width="4" height="4"/>
  <rect class="cls-16" x="108" y="32" width="4" height="4"/>
  <rect class="cls-16" x="108" y="28" width="4" height="4"/>
  <rect class="cls-16" x="108" y="24" width="4" height="4"/>
  <rect class="cls-10" x="108" y="20" width="4" height="4"/>
  <rect class="cls-16" x="108" y="16" width="4" height="4"/>
  <rect class="cls-16" x="104" y="52" width="4" height="4"/>
  <rect class="cls-1" x="104" y="48" width="4" height="4"/>
  <rect class="cls-16" x="104" y="44" width="4" height="4"/>
  <rect class="cls-16" x="104" y="40" width="4" height="4"/>
  <rect class="cls-16" x="104" y="36" width="4" height="4"/>
  <rect class="cls-16" x="104" y="32" width="4" height="4"/>
  <rect class="cls-16" x="104" y="28" width="4" height="4"/>
  <rect class="cls-10" x="104" y="24" width="4" height="4"/>
  <rect class="cls-10" x="104" y="20" width="4" height="4"/>
  <rect class="cls-16" x="104" y="16" width="4" height="4"/>
  <rect class="cls-16" x="100" y="52" width="4" height="4"/>
  <rect class="cls-1" x="100" y="48" width="4" height="4"/>
  <rect class="cls-1" x="100" y="44" width="4" height="4"/>
  <rect class="cls-1" x="100" y="40" width="4" height="4"/>
  <rect class="cls-1" x="100" y="36" width="4" height="4"/>
  <rect class="cls-16" x="100" y="32" width="4" height="4"/>
  <rect class="cls-10" x="100" y="28" width="4" height="4"/>
  <rect class="cls-9" x="100" y="24" width="4" height="4"/>
  <rect class="cls-9" x="100" y="20" width="4" height="4"/>
  <rect class="cls-10" x="100" y="16" width="4" height="4"/>
  <rect class="cls-16" x="100" y="12" width="4" height="4"/>
  <rect class="cls-16" x="96" y="56" width="4" height="4"/>
  <rect class="cls-1" x="96" y="52" width="4" height="4"/>
  <rect class="cls-16" x="96" y="48" width="4" height="4"/>
  <rect class="cls-1" x="96" y="44" width="4" height="4"/>
  <rect class="cls-16" x="96" y="40" width="4" height="4"/>
  <rect class="cls-16" x="96" y="36" width="4" height="4"/>
  <rect class="cls-10" x="96" y="32" width="4" height="4"/>
  <rect class="cls-9" x="96" y="28" width="4" height="4"/>
  <rect class="cls-9" x="96" y="24" width="4" height="4"/>
  <rect class="cls-9" x="96" y="20" width="4" height="4"/>
  <rect class="cls-10" x="96" y="16" width="4" height="4"/>
  <rect class="cls-16" x="96" y="12" width="4" height="4"/>
  <rect class="cls-16" x="92" y="56" width="4" height="4"/>
  <rect class="cls-1" x="92" y="52" width="4" height="4"/>
  <rect class="cls-16" x="92" y="48" width="4" height="4"/>
  <rect class="cls-1" x="92" y="44" width="4" height="4"/>
  <rect class="cls-1" x="92" y="40" width="4" height="4"/>
  <rect class="cls-16" x="92" y="36" width="4" height="4"/>
  <rect class="cls-9" x="92" y="32" width="4" height="4"/>
  <rect class="cls-9" x="92" y="28" width="4" height="4"/>
  <rect class="cls-13" x="92" y="24" width="4" height="4"/>
  <rect class="cls-13" x="92" y="20" width="4" height="4"/>
  <rect class="cls-13" x="92" y="16" width="4" height="4"/>
  <rect class="cls-10" x="92" y="12" width="4" height="4"/>
  <rect class="cls-16" x="92" y="8" width="4" height="4"/>
  <rect class="cls-16" x="88" y="60" width="4" height="4"/>
  <rect class="cls-16" x="88" y="56" width="4" height="4"/>
  <rect class="cls-16" x="88" y="52" width="4" height="4"/>
  <rect class="cls-1" x="88" y="48" width="4" height="4"/>
  <rect class="cls-16" x="88" y="44" width="4" height="4"/>
  <rect class="cls-16" x="88" y="40" width="4" height="4"/>
  <rect class="cls-9" x="88" y="36" width="4" height="4"/>
  <rect class="cls-13" x="88" y="32" width="4" height="4"/>
  <rect class="cls-9" x="88" y="28" width="4" height="4"/>
  <rect class="cls-13" x="88" y="24" width="4" height="4"/>
  <rect class="cls-2" x="88" y="20" width="4" height="4"/>
  <rect class="cls-13" x="88" y="16" width="4" height="4"/>
  <rect class="cls-10" x="88" y="12" width="4" height="4"/>
  <rect class="cls-16" x="88" y="8" width="4" height="4"/>
  <rect class="cls-6" x="84" y="60" width="4" height="4"/>
  <rect class="cls-5" x="84" y="56" width="4" height="4"/>
  <rect class="cls-5" x="84" y="52" width="4" height="4"/>
  <rect class="cls-5" x="84" y="48" width="4" height="4"/>
  <rect class="cls-5" x="84" y="44" width="4" height="4"/>
  <rect class="cls-5" x="84" y="40" width="4" height="4"/>
  <rect class="cls-8" x="84" y="36" width="4" height="4"/>
  <rect class="cls-13" x="84" y="32" width="4" height="4"/>
  <rect class="cls-13" x="84" y="28" width="4" height="4"/>
  <rect class="cls-13" x="84" y="24" width="4" height="4"/>
  <rect class="cls-2" x="84" y="20" width="4" height="4"/>
  <rect class="cls-13" x="84" y="16" width="4" height="4"/>
  <rect class="cls-13" x="84" y="12" width="4" height="4"/>
  <rect class="cls-10" x="84" y="8" width="4" height="4"/>
  <rect class="cls-16" x="84" y="4" width="4" height="4"/>
  <rect class="cls-6" x="80" y="64" width="4" height="4"/>
  <rect class="cls-5" x="80" y="60" width="4" height="4"/>
  <rect class="cls-5" x="80" y="56" width="4" height="4"/>
  <rect class="cls-5" x="80" y="52" width="4" height="4"/>
  <rect class="cls-5" x="80" y="48" width="4" height="4"/>
  <rect class="cls-5" x="80" y="44" width="4" height="4"/>
  <rect class="cls-8" x="80" y="40" width="4" height="4"/>
  <rect class="cls-8" x="80" y="36" width="4" height="4"/>
  <rect class="cls-8" x="80" y="32" width="4" height="4"/>
  <rect class="cls-13" x="80" y="28" width="4" height="4"/>
  <rect class="cls-13" x="80" y="24" width="4" height="4"/>
  <rect class="cls-13" x="80" y="20" width="4" height="4"/>
  <rect class="cls-2" x="80" y="16" width="4" height="4"/>
  <rect class="cls-13" x="80" y="12" width="4" height="4"/>
  <rect class="cls-10" x="80" y="8" width="4" height="4"/>
  <rect class="cls-16" x="80" y="4" width="4" height="4"/>
  <rect class="cls-6" x="76" y="64" width="4" height="4"/>
  <rect class="cls-5" x="76" y="60" width="4" height="4"/>
  <rect class="cls-5" x="76" y="56" width="4" height="4"/>
  <rect class="cls-5" x="76" y="52" width="4" height="4"/>
  <rect class="cls-5" x="76" y="48" width="4" height="4"/>
  <rect class="cls-5" x="76" y="44" width="4" height="4"/>
  <rect class="cls-8" x="76" y="40" width="4" height="4"/>
  <rect class="cls-8" x="76" y="36" width="4" height="4"/>
  <rect class="cls-8" x="76" y="32" width="4" height="4"/>
  <rect class="cls-16" x="76" y="28" width="4" height="4"/>
  <rect class="cls-13" x="76" y="24" width="4" height="4"/>
  <rect class="cls-13" x="76" y="20" width="4" height="4"/>
  <rect class="cls-2" x="76" y="16" width="4" height="4"/>
  <rect class="cls-13" x="76" y="12" width="4" height="4"/>
  <rect class="cls-9" x="76" y="8" width="4" height="4"/>
  <rect class="cls-10" x="76" y="4" width="4" height="4"/>
  <rect class="cls-16" x="76" width="4" height="4"/>
  <rect class="cls-6" x="72" y="68" width="4" height="4"/>
  <rect class="cls-5" x="72" y="64" width="4" height="4"/>
  <rect class="cls-5" x="72" y="60" width="4" height="4"/>
  <rect class="cls-5" x="72" y="56" width="4" height="4"/>
  <rect class="cls-5" x="72" y="52" width="4" height="4"/>
  <rect class="cls-5" x="72" y="48" width="4" height="4"/>
  <rect class="cls-8" x="72" y="44" width="4" height="4"/>
  <rect class="cls-8" x="72" y="40" width="4" height="4"/>
  <rect class="cls-8" x="72" y="36" width="4" height="4"/>
  <rect class="cls-7" x="72" y="32" width="4" height="4"/>
  <rect class="cls-7" x="72" y="28" width="4" height="4"/>
  <rect class="cls-13" x="72" y="24" width="4" height="4"/>
  <rect class="cls-13" x="72" y="20" width="4" height="4"/>
  <rect class="cls-13" x="72" y="16" width="4" height="4"/>
  <rect class="cls-13" x="72" y="12" width="4" height="4"/>
  <rect class="cls-9" x="72" y="8" width="4" height="4"/>
  <rect class="cls-10" x="72" y="4" width="4" height="4"/>
  <rect class="cls-16" x="72" width="4" height="4"/>
  <rect class="cls-6" x="68" y="68" width="4" height="4"/>
  <rect class="cls-5" x="68" y="64" width="4" height="4"/>
  <rect class="cls-5" x="68" y="60" width="4" height="4"/>
  <rect class="cls-5" x="68" y="56" width="4" height="4"/>
  <rect class="cls-5" x="68" y="52" width="4" height="4"/>
  <rect class="cls-5" x="68" y="48" width="4" height="4"/>
  <rect class="cls-8" x="68" y="44" width="4" height="4"/>
  <rect class="cls-8" x="68" y="40" width="4" height="4"/>
  <rect class="cls-8" x="68" y="36" width="4" height="4"/>
  <rect class="cls-7" x="68" y="32" width="4" height="4"/>
  <rect class="cls-7" x="68" y="28" width="4" height="4"/>
  <rect class="cls-16" x="68" y="24" width="4" height="4"/>
  <rect class="cls-9" x="68" y="20" width="4" height="4"/>
  <rect class="cls-9" x="68" y="16" width="4" height="4"/>
  <rect class="cls-9" x="68" y="12" width="4" height="4"/>
  <rect class="cls-10" x="68" y="8" width="4" height="4"/>
  <rect class="cls-16" x="68" y="4" width="4" height="4"/>
  <rect class="cls-4" x="64" y="72" width="4" height="4"/>
  <rect class="cls-16" x="64" y="68" width="4" height="4"/>
  <rect class="cls-4" x="64" y="64" width="4" height="4"/>
  <rect class="cls-4" x="64" y="60" width="4" height="4"/>
  <rect class="cls-16" x="64" y="56" width="4" height="4"/>
  <rect class="cls-16" x="64" y="52" width="4" height="4"/>
  <rect class="cls-2" x="64" y="48" width="4" height="4"/>
  <rect class="cls-11" x="64" y="44" width="4" height="4"/>
  <rect class="cls-5" x="64" y="40" width="4" height="4"/>
  <rect class="cls-7" x="64" y="36" width="4" height="4"/>
  <rect class="cls-7" x="64" y="32" width="4" height="4"/>
  <rect class="cls-7" x="64" y="28" width="4" height="4"/>
  <rect class="cls-7" x="64" y="24" width="4" height="4"/>
  <rect class="cls-9" x="64" y="20" width="4" height="4"/>
  <rect class="cls-9" x="64" y="16" width="4" height="4"/>
  <rect class="cls-10" x="64" y="12" width="4" height="4"/>
  <rect class="cls-16" x="64" y="8" width="4" height="4"/>
  <rect class="cls-4" x="60" y="72" width="4" height="4"/>
  <rect class="cls-16" x="60" y="68" width="4" height="4"/>
  <rect class="cls-4" x="60" y="64" width="4" height="4"/>
  <rect class="cls-16" x="60" y="60" width="4" height="4"/>
  <rect class="cls-16" x="60" y="56" width="4" height="4"/>
  <rect class="cls-16" x="60" y="52" width="4" height="4"/>
  <rect class="cls-2" x="60" y="48" width="4" height="4"/>
  <rect class="cls-11" x="60" y="44" width="4" height="4"/>
  <rect class="cls-5" x="60" y="40" width="4" height="4"/>
  <rect class="cls-7" x="60" y="36" width="4" height="4"/>
  <rect class="cls-7" x="60" y="32" width="4" height="4"/>
  <rect class="cls-7" x="60" y="28" width="4" height="4"/>
  <rect class="cls-7" x="60" y="24" width="4" height="4"/>
  <rect class="cls-16" x="60" y="20" width="4" height="4"/>
  <rect class="cls-10" x="60" y="16" width="4" height="4"/>
  <rect class="cls-16" x="60" y="12" width="4" height="4"/>
  <rect class="cls-4" x="56" y="76" width="4" height="4"/>
  <rect class="cls-4" x="56" y="72" width="4" height="4"/>
  <rect class="cls-4" x="56" y="68" width="4" height="4"/>
  <rect class="cls-4" x="56" y="64" width="4" height="4"/>
  <rect class="cls-16" x="56" y="60" width="4" height="4"/>
  <rect class="cls-16" x="56" y="56" width="4" height="4"/>
  <rect class="cls-16" x="56" y="52" width="4" height="4"/>
  <rect class="cls-2" x="56" y="48" width="4" height="4"/>
  <rect class="cls-1" x="56" y="44" width="4" height="4"/>
  <rect class="cls-1" x="56" y="40" width="4" height="4"/>
  <rect class="cls-7" x="56" y="36" width="4" height="4"/>
  <rect class="cls-7" x="56" y="32" width="4" height="4"/>
  <rect class="cls-7" x="56" y="28" width="4" height="4"/>
  <rect class="cls-7" x="56" y="24" width="4" height="4"/>
  <rect class="cls-7" x="56" y="20" width="4" height="4"/>
  <rect class="cls-16" x="56" y="16" width="4" height="4"/>
  <rect class="cls-4" x="52" y="76" width="4" height="4"/>
  <rect class="cls-4" x="52" y="72" width="4" height="4"/>
  <rect class="cls-4" x="52" y="68" width="4" height="4"/>
  <rect class="cls-4" x="52" y="64" width="4" height="4"/>
  <rect class="cls-4" x="52" y="60" width="4" height="4"/>
  <rect class="cls-16" x="52" y="56" width="4" height="4"/>
  <rect class="cls-2" x="52" y="52" width="4" height="4"/>
  <rect class="cls-11" x="52" y="48" width="4" height="4"/>
  <rect class="cls-1" x="52" y="44" width="4" height="4"/>
  <rect class="cls-11" x="52" y="40" width="4" height="4"/>
  <rect class="cls-7" x="52" y="36" width="4" height="4"/>
  <rect class="cls-7" x="52" y="32" width="4" height="4"/>
  <rect class="cls-7" x="52" y="28" width="4" height="4"/>
  <rect class="cls-7" x="52" y="24" width="4" height="4"/>
  <rect class="cls-7" x="52" y="20" width="4" height="4"/>
  <rect class="cls-16" x="52" y="16" width="4" height="4"/>
  <rect class="cls-4" x="48" y="80" width="4" height="4"/>
  <rect class="cls-4" x="48" y="76" width="4" height="4"/>
  <rect class="cls-4" x="48" y="72" width="4" height="4"/>
  <rect class="cls-4" x="48" y="68" width="4" height="4"/>
  <rect class="cls-4" x="48" y="64" width="4" height="4"/>
  <rect class="cls-4" x="48" y="60" width="4" height="4"/>
  <rect class="cls-16" x="48" y="56" width="4" height="4"/>
  <rect class="cls-10" x="48" y="52" width="4" height="4"/>
  <rect class="cls-11" x="48" y="48" width="4" height="4"/>
  <rect class="cls-1" x="48" y="44" width="4" height="4"/>
  <rect class="cls-11" x="48" y="40" width="4" height="4"/>
  <rect class="cls-1" x="48" y="36" width="4" height="4"/>
  <rect class="cls-7" x="48" y="32" width="4" height="4"/>
  <rect class="cls-7" x="48" y="28" width="4" height="4"/>
  <rect class="cls-7" x="48" y="24" width="4" height="4"/>
  <rect class="cls-5" x="48" y="20" width="4" height="4"/>
  <rect class="cls-4" x="44" y="80" width="4" height="4"/>
  <rect class="cls-4" x="44" y="76" width="4" height="4"/>
  <rect class="cls-4" x="44" y="72" width="4" height="4"/>
  <rect class="cls-4" x="44" y="68" width="4" height="4"/>
  <rect class="cls-4" x="44" y="64" width="4" height="4"/>
  <rect class="cls-4" x="44" y="60" width="4" height="4"/>
  <rect class="cls-16" x="44" y="56" width="4" height="4"/>
  <rect class="cls-10" x="44" y="52" width="4" height="4"/>
  <rect class="cls-11" x="44" y="48" width="4" height="4"/>
  <rect class="cls-1" x="44" y="44" width="4" height="4"/>
  <rect class="cls-1" x="44" y="40" width="4" height="4"/>
  <rect class="cls-11" x="44" y="36" width="4" height="4"/>
  <rect class="cls-7" x="44" y="32" width="4" height="4"/>
  <rect class="cls-7" x="44" y="28" width="4" height="4"/>
  <rect class="cls-7" x="44" y="24" width="4" height="4"/>
  <rect class="cls-5" x="44" y="20" width="4" height="4"/>
  <rect class="cls-3" x="40" y="84" width="4" height="4"/>
  <rect class="cls-4" x="40" y="80" width="4" height="4"/>
  <rect class="cls-4" x="40" y="76" width="4" height="4"/>
  <rect class="cls-4" x="40" y="72" width="4" height="4"/>
  <rect class="cls-4" x="40" y="68" width="4" height="4"/>
  <rect class="cls-4" x="40" y="64" width="4" height="4"/>
  <rect class="cls-16" x="40" y="60" width="4" height="4"/>
  <rect class="cls-10" x="40" y="56" width="4" height="4"/>
  <rect class="cls-9" x="40" y="52" width="4" height="4"/>
  <rect class="cls-12" x="40" y="48" width="4" height="4"/>
  <rect class="cls-11" x="40" y="44" width="4" height="4"/>
  <rect class="cls-1" x="40" y="40" width="4" height="4"/>
  <rect class="cls-11" x="40" y="36" width="4" height="4"/>
  <rect class="cls-1" x="40" y="32" width="4" height="4"/>
  <rect class="cls-7" x="40" y="28" width="4" height="4"/>
  <rect class="cls-5" x="40" y="24" width="4" height="4"/>
  <rect class="cls-3" x="36" y="84" width="4" height="4"/>
  <rect class="cls-4" x="36" y="80" width="4" height="4"/>
  <rect class="cls-4" x="36" y="76" width="4" height="4"/>
  <rect class="cls-4" x="36" y="72" width="4" height="4"/>
  <rect class="cls-4" x="36" y="68" width="4" height="4"/>
  <rect class="cls-4" x="36" y="64" width="4" height="4"/>
  <rect class="cls-16" x="36" y="60" width="4" height="4"/>
  <rect class="cls-10" x="36" y="56" width="4" height="4"/>
  <rect class="cls-9" x="36" y="52" width="4" height="4"/>
  <rect class="cls-12" x="36" y="48" width="4" height="4"/>
  <rect class="cls-11" x="36" y="44" width="4" height="4"/>
  <rect class="cls-1" x="36" y="40" width="4" height="4"/>
  <rect class="cls-1" x="36" y="36" width="4" height="4"/>
  <rect class="cls-1" x="36" y="32" width="4" height="4"/>
  <rect class="cls-7" x="36" y="28" width="4" height="4"/>
  <rect class="cls-5" x="36" y="24" width="4" height="4"/>
  <rect class="cls-16" x="32" y="80" width="4" height="4"/>
  <rect class="cls-14" x="32" y="76" width="4" height="4"/>
  <rect class="cls-14" x="32" y="72" width="4" height="4"/>
  <rect class="cls-14" x="32" y="68" width="4" height="4"/>
  <rect class="cls-14" x="32" y="64" width="4" height="4"/>
  <rect class="cls-14" x="32" y="60" width="4" height="4"/>
  <rect class="cls-16" x="32" y="56" width="4" height="4"/>
  <rect class="cls-10" x="32" y="52" width="4" height="4"/>
  <rect class="cls-12" x="32" y="48" width="4" height="4"/>
  <rect class="cls-12" x="32" y="44" width="4" height="4"/>
  <rect class="cls-11" x="32" y="40" width="4" height="4"/>
  <rect class="cls-11" x="32" y="36" width="4" height="4"/>
  <rect class="cls-2" x="32" y="32" width="4" height="4"/>
  <rect class="cls-16" x="32" y="28" width="4" height="4"/>
  <rect class="cls-16" x="28" y="80" width="4" height="4"/>
  <rect class="cls-14" x="28" y="76" width="4" height="4"/>
  <rect class="cls-14" x="28" y="72" width="4" height="4"/>
  <rect class="cls-14" x="28" y="68" width="4" height="4"/>
  <rect class="cls-14" x="28" y="64" width="4" height="4"/>
  <rect class="cls-14" x="28" y="60" width="4" height="4"/>
  <rect class="cls-16" x="28" y="56" width="4" height="4"/>
  <rect class="cls-10" x="28" y="52" width="4" height="4"/>
  <rect class="cls-9" x="28" y="48" width="4" height="4"/>
  <rect class="cls-12" x="28" y="44" width="4" height="4"/>
  <rect class="cls-11" x="28" y="40" width="4" height="4"/>
  <rect class="cls-11" x="28" y="36" width="4" height="4"/>
  <rect class="cls-2" x="28" y="32" width="4" height="4"/>
  <rect class="cls-16" x="28" y="28" width="4" height="4"/>
  <rect class="cls-16" x="24" y="76" width="4" height="4"/>
  <rect class="cls-14" x="24" y="72" width="4" height="4"/>
  <rect class="cls-14" x="24" y="68" width="4" height="4"/>
  <rect class="cls-14" x="24" y="64" width="4" height="4"/>
  <rect class="cls-14" x="24" y="60" width="4" height="4"/>
  <rect class="cls-14" x="24" y="56" width="4" height="4"/>
  <rect class="cls-16" x="24" y="52" width="4" height="4"/>
  <rect class="cls-10" x="24" y="48" width="4" height="4"/>
  <rect class="cls-12" x="24" y="44" width="4" height="4"/>
  <rect class="cls-12" x="24" y="40" width="4" height="4"/>
  <rect class="cls-2" x="24" y="36" width="4" height="4"/>
  <rect class="cls-16" x="24" y="32" width="4" height="4"/>
  <rect class="cls-16" x="20" y="76" width="4" height="4"/>
  <rect class="cls-15" x="20" y="72" width="4" height="4"/>
  <rect class="cls-14" x="20" y="68" width="4" height="4"/>
  <rect class="cls-15" x="20" y="64" width="4" height="4"/>
  <rect class="cls-15" x="20" y="60" width="4" height="4"/>
  <rect class="cls-15" x="20" y="56" width="4" height="4"/>
  <rect class="cls-16" x="20" y="52" width="4" height="4"/>
  <rect class="cls-10" x="20" y="48" width="4" height="4"/>
  <rect class="cls-9" x="20" y="44" width="4" height="4"/>
  <rect class="cls-12" x="20" y="40" width="4" height="4"/>
  <rect class="cls-2" x="20" y="36" width="4" height="4"/>
  <rect class="cls-16" x="20" y="32" width="4" height="4"/>
  <rect class="cls-16" x="16" y="72" width="4" height="4"/>
  <rect class="cls-15" x="16" y="68" width="4" height="4"/>
  <rect class="cls-15" x="16" y="64" width="4" height="4"/>
  <rect class="cls-15" x="16" y="60" width="4" height="4"/>
  <rect class="cls-14" x="16" y="56" width="4" height="4"/>
  <rect class="cls-15" x="16" y="52" width="4" height="4"/>
  <rect class="cls-16" x="16" y="48" width="4" height="4"/>
  <rect class="cls-10" x="16" y="44" width="4" height="4"/>
  <rect class="cls-9" x="16" y="40" width="4" height="4"/>
  <rect class="cls-10" x="16" y="36" width="4" height="4"/>
  <rect class="cls-16" x="16" y="32" width="4" height="4"/>
  <rect class="cls-16" x="12" y="72" width="4" height="4"/>
  <rect class="cls-15" x="12" y="68" width="4" height="4"/>
  <rect class="cls-14" x="12" y="64" width="4" height="4"/>
  <rect class="cls-15" x="12" y="60" width="4" height="4"/>
  <rect class="cls-14" x="12" y="56" width="4" height="4"/>
  <rect class="cls-15" x="12" y="52" width="4" height="4"/>
  <rect class="cls-16" x="12" y="48" width="4" height="4"/>
  <rect class="cls-10" x="12" y="44" width="4" height="4"/>
  <rect class="cls-10" x="12" y="40" width="4" height="4"/>
  <rect class="cls-16" x="12" y="36" width="4" height="4"/>
  <rect class="cls-16" x="8" y="68" width="4" height="4"/>
  <rect class="cls-15" x="8" y="64" width="4" height="4"/>
  <rect class="cls-15" x="8" y="60" width="4" height="4"/>
  <rect class="cls-15" x="8" y="56" width="4" height="4"/>
  <rect class="cls-15" x="8" y="52" width="4" height="4"/>
  <rect class="cls-15" x="8" y="48" width="4" height="4"/>
  <rect class="cls-16" x="8" y="44" width="4" height="4"/>
  <rect class="cls-10" x="8" y="40" width="4" height="4"/>
  <rect class="cls-16" x="8" y="36" width="4" height="4"/>
  <rect class="cls-16" x="4" y="68" width="4" height="4"/>
  <rect class="cls-15" x="4" y="64" width="4" height="4"/>
  <rect class="cls-15" x="4" y="60" width="4" height="4"/>
  <rect class="cls-15" x="4" y="56" width="4" height="4"/>
  <rect class="cls-15" x="4" y="52" width="4" height="4"/>
  <rect class="cls-15" x="4" y="48" width="4" height="4"/>
  <rect class="cls-16" x="4" y="44" width="4" height="4"/>
  <rect class="cls-10" x="4" y="40" width="4" height="4"/>
  <rect class="cls-16" x="4" y="36" width="4" height="4"/>
  <rect class="cls-16" y="64" width="4" height="4"/>
  <rect class="cls-15" y="60" width="4" height="4"/>
  <rect class="cls-16" y="56" width="4" height="4"/>
  <rect class="cls-16" y="52" width="4" height="4"/>
  <rect class="cls-16" y="48" width="4" height="4"/>
  <rect class="cls-15" y="44" width="4" height="4"/>
  <rect class="cls-16" y="40" width="4" height="4"/>
</svg>