<?xml version="1.0" encoding="UTF-8"?>
<svg id="Livello_1" data-name="Livello 1" xmlns="http://www.w3.org/2000/svg" viewBox="0 0 128.2 128.2">
  <defs>
    <style>
      .cls-1 {
        fill: #f1ed92;
      }

      .cls-1, .cls-2, .cls-3, .cls-4 {
        stroke-width: 0px;
      }

      .cls-2 {
        fill: #231d2b;
      }

      .cls-3 {
        fill: #cf8936;
      }

      .cls-4 {
        fill: #e1b332;
      }
    </style>
  </defs>
  <rect class="cls-2" x="84.1" y="62.1" width="4" height="4"/>
  <rect class="cls-2" x="84.1" y="58.1" width="4" height="4"/>
  <rect class="cls-2" x="84.1" y="54.1" width="4" height="4"/>
  <rect class="cls-2" x="84.1" y="50.1" width="4" height="4"/>
  <rect class="cls-2" x="84.1" y="34.1" width="4" height="4"/>
  <rect class="cls-2" x="84.1" y="30.1" width="4" height="4"/>
  <rect class="cls-2" x="80.1" y="66.1" width="4" height="4"/>
  <rect class="cls-3" x="80.1" y="62.1" width="4" height="4"/>
  <rect class="cls-1" x="80.1" y="58.1" width="4" height="4"/>
  <rect class="cls-1" x="80.1" y="54.1" width="4" height="4"/>
  <rect class="cls-2" x="80.1" y="50.1" width="4" height="4"/>
  <rect class="cls-2" x="80.1" y="38.1" width="4" height="4"/>
  <rect class="cls-3" x="80.1" y="34.1" width="4" height="4"/>
  <rect class="cls-2" x="80.1" y="30.1" width="4" height="4"/>
  <rect class="cls-2" x="76.1" y="70.1" width="4" height="4"/>
  <rect class="cls-3" x="76.1" y="66.1" width="4" height="4"/>
  <rect class="cls-4" x="76.1" y="62.1" width="4" height="4"/>
  <rect class="cls-4" x="76.1" y="58.1" width="4" height="4"/>
  <rect class="cls-1" x="76.1" y="54.1" width="4" height="4"/>
  <rect class="cls-2" x="76.1" y="50.1" width="4" height="4"/>
  <rect class="cls-2" x="76.1" y="42.1" width="4" height="4"/>
  <rect class="cls-3" x="76.1" y="38.1" width="4" height="4"/>
  <rect class="cls-4" x="76.1" y="34.1" width="4" height="4"/>
  <rect class="cls-2" x="76.1" y="30.1" width="4" height="4"/>
  <rect class="cls-2" x="72.1" y="74.1" width="4" height="4"/>
  <rect class="cls-3" x="72.1" y="70.1" width="4" height="4"/>
  <rect class="cls-4" x="72.1" y="66.1" width="4" height="4"/>
  <rect class="cls-4" x="72.1" y="62.1" width="4" height="4"/>
  <rect class="cls-4" x="72.1" y="58.1" width="4" height="4"/>
  <rect class="cls-4" x="72.1" y="54.1" width="4" height="4"/>
  <rect class="cls-2" x="72.1" y="50.1" width="4" height="4"/>
  <rect class="cls-2" x="72.1" y="46.1" width="4" height="4"/>
  <rect class="cls-3" x="72.1" y="42.1" width="4" height="4"/>
  <rect class="cls-4" x="72.1" y="38.1" width="4" height="4"/>
  <rect class="cls-4" x="72.1" y="34.1" width="4" height="4"/>
  <rect class="cls-2" x="72.1" y="30.1" width="4" height="4"/>
  <rect class="cls-2" x="68.1" y="78.1" width="4" height="4"/>
  <rect class="cls-3" x="68.1" y="74.1" width="4" height="4"/>
  <rect class="cls-4" x="68.1" y="70.1" width="4" height="4"/>
  <rect class="cls-4" x="68.1" y="66.1" width="4" height="4"/>
  <rect class="cls-4" x="68.1" y="62.1" width="4" height="4"/>
  <rect class="cls-4" x="68.1" y="58.1" width="4" height="4"/>
  <rect class="cls-4" x="68.1" y="54.1" width="4" height="4"/>
  <rect class="cls-2" x="68.1" y="50.1" width="4" height="4"/>
  <rect class="cls-3" x="68.1" y="46.1" width="4" height="4"/>
  <rect class="cls-4" x="68.1" y="42.1" width="4" height="4"/>
  <rect class="cls-4" x="68.1" y="38.1" width="4" height="4"/>
  <rect class="cls-4" x="68.1" y="34.1" width="4" height="4"/>
  <rect class="cls-2" x="68.1" y="30.1" width="4" height="4"/>
  <rect class="cls-2" x="64.1" y="82.1" width="4" height="4"/>
  <rect class="cls-3" x="64.1" y="78.1" width="4" height="4"/>
  <rect class="cls-4" x="64.1" y="74.1" width="4" height="4"/>
  <rect class="cls-4" x="64.1" y="70.1" width="4" height="4"/>
  <rect class="cls-4" x="64.1" y="66.1" width="4" height="4"/>
  <rect class="cls-4" x="64.1" y="62.1" width="4" height="4"/>
  <rect class="cls-4" x="64.1" y="58.1" width="4" height="4"/>
  <rect class="cls-4" x="64.1" y="54.1" width="4" height="4"/>
  <rect class="cls-3" x="64.1" y="50.1" width="4" height="4"/>
  <rect class="cls-4" x="64.1" y="46.1" width="4" height="4"/>
  <rect class="cls-4" x="64.1" y="42.1" width="4" height="4"/>
  <rect class="cls-4" x="64.1" y="38.1" width="4" height="4"/>
  <rect class="cls-4" x="64.1" y="34.1" width="4" height="4"/>
  <rect class="cls-2" x="64.1" y="30.1" width="4" height="4"/>
  <rect class="cls-2" x="60.1" y="86.1" width="4" height="4"/>
  <rect class="cls-3" x="60.1" y="82.1" width="4" height="4"/>
  <rect class="cls-4" x="60.1" y="78.1" width="4" height="4"/>
  <rect class="cls-4" x="60.1" y="74.1" width="4" height="4"/>
  <rect class="cls-4" x="60.1" y="70.1" width="4" height="4"/>
  <rect class="cls-2" x="60.1" y="66.1" width="4" height="4"/>
  <rect class="cls-4" x="60.1" y="62.1" width="4" height="4"/>
  <rect class="cls-4" x="60.1" y="58.1" width="4" height="4"/>
  <rect class="cls-4" x="60.1" y="54.1" width="4" height="4"/>
  <rect class="cls-4" x="60.1" y="50.1" width="4" height="4"/>
  <rect class="cls-4" x="60.1" y="46.1" width="4" height="4"/>
  <rect class="cls-4" x="60.1" y="42.1" width="4" height="4"/>
  <rect class="cls-4" x="60.1" y="38.1" width="4" height="4"/>
  <rect class="cls-4" x="60.1" y="34.1" width="4" height="4"/>
  <rect class="cls-2" x="60.1" y="30.1" width="4" height="4"/>
  <rect class="cls-2" x="56.1" y="90.1" width="4" height="4"/>
  <rect class="cls-4" x="56.1" y="86.1" width="4" height="4"/>
  <rect class="cls-4" x="56.1" y="82.1" width="4" height="4"/>
  <rect class="cls-2" x="56.1" y="78.1" width="4" height="4"/>
  <rect class="cls-2" x="56.1" y="74.1" width="4" height="4"/>
  <rect class="cls-2" x="56.1" y="70.1" width="4" height="4"/>
  <rect class="cls-2" x="56.1" y="66.1" width="4" height="4"/>
  <rect class="cls-4" x="56.1" y="62.1" width="4" height="4"/>
  <rect class="cls-4" x="56.1" y="58.1" width="4" height="4"/>
  <rect class="cls-4" x="56.1" y="54.1" width="4" height="4"/>
  <rect class="cls-4" x="56.1" y="50.1" width="4" height="4"/>
  <rect class="cls-4" x="56.1" y="46.1" width="4" height="4"/>
  <rect class="cls-4" x="56.1" y="42.1" width="4" height="4"/>
  <rect class="cls-4" x="56.1" y="38.1" width="4" height="4"/>
  <rect class="cls-4" x="56.1" y="34.1" width="4" height="4"/>
  <rect class="cls-2" x="56.1" y="30.1" width="4" height="4"/>
  <rect class="cls-2" x="52.1" y="94.1" width="4" height="4"/>
  <rect class="cls-4" x="52.1" y="90.1" width="4" height="4"/>
  <rect class="cls-2" x="52.1" y="86.1" width="4" height="4"/>
  <rect class="cls-2" x="52.1" y="82.1" width="4" height="4"/>
  <rect class="cls-2" x="52.1" y="78.1" width="4" height="4"/>
  <rect class="cls-2" x="52.1" y="66.1" width="4" height="4"/>
  <rect class="cls-4" x="52.1" y="62.1" width="4" height="4"/>
  <rect class="cls-4" x="52.1" y="58.1" width="4" height="4"/>
  <rect class="cls-4" x="52.1" y="54.1" width="4" height="4"/>
  <rect class="cls-4" x="52.1" y="50.1" width="4" height="4"/>
  <rect class="cls-4" x="52.1" y="46.1" width="4" height="4"/>
  <rect class="cls-1" x="52.1" y="42.1" width="4" height="4"/>
  <rect class="cls-1" x="52.1" y="38.1" width="4" height="4"/>
  <rect class="cls-1" x="52.1" y="34.1" width="4" height="4"/>
  <rect class="cls-2" x="52.1" y="30.1" width="4" height="4"/>
  <rect class="cls-2" x="48.1" y="94.1" width="4" height="4"/>
  <rect class="cls-2" x="48.1" y="90.1" width="4" height="4"/>
  <rect class="cls-2" x="48.1" y="86.1" width="4" height="4"/>
  <rect class="cls-2" x="48.1" y="66.1" width="4" height="4"/>
  <rect class="cls-4" x="48.1" y="62.1" width="4" height="4"/>
  <rect class="cls-4" x="48.1" y="58.1" width="4" height="4"/>
  <rect class="cls-1" x="48.1" y="54.1" width="4" height="4"/>
  <rect class="cls-1" x="48.1" y="50.1" width="4" height="4"/>
  <rect class="cls-1" x="48.1" y="46.1" width="4" height="4"/>
  <rect class="cls-2" x="48.1" y="42.1" width="4" height="4"/>
  <rect class="cls-2" x="48.1" y="38.1" width="4" height="4"/>
  <rect class="cls-2" x="48.1" y="34.1" width="4" height="4"/>
  <rect class="cls-2" x="44.1" y="66.1" width="4" height="4"/>
  <rect class="cls-1" x="44.1" y="62.1" width="4" height="4"/>
  <rect class="cls-1" x="44.1" y="58.1" width="4" height="4"/>
  <rect class="cls-1" x="44.1" y="54.1" width="4" height="4"/>
  <rect class="cls-2" x="44.1" y="50.1" width="4" height="4"/>
  <rect class="cls-2" x="44.1" y="46.1" width="4" height="4"/>
  <rect class="cls-2" x="44.1" y="42.1" width="4" height="4"/>
  <rect class="cls-2" x="40.1" y="62.1" width="4" height="4"/>
  <rect class="cls-2" x="40.1" y="58.1" width="4" height="4"/>
  <rect class="cls-2" x="40.1" y="54.1" width="4" height="4"/>
</svg>